<svg width="256" height="256" viewBox="0 0 256 256" fill="none" xmlns="http://www.w3.org/2000/svg">
<g clip-path="url(#clip0_1421_63)">
<path d="M211.356 46.9781L56.8582 197.257C51.0678 202.889 41.3295 202.121 36.5919 195.465C20.2736 172.296 10.6667 144.903 10.6667 116.741V60.5467C10.6667 50.0502 18.826 38.1457 28.8275 34.1775L102.128 4.99222C118.71 -1.66407 137.134 -1.66407 153.715 4.99222L207.013 26.1132C215.698 29.5693 217.936 40.5778 211.356 46.9781Z" fill="#A6A09B"/>
<path d="M223.751 64.5353C232.305 57.4949 245.333 63.5112 245.333 74.3917V116.762C245.333 179.357 198.616 237.983 134.79 255.136C130.447 256.288 125.709 256.288 121.235 255.136C102.548 250.016 85.1769 241.439 70.3061 230.175C63.9893 225.439 63.3313 216.478 68.8585 210.974C97.5472 182.429 181.508 99.2248 223.751 64.5353Z" fill="#A6A09B"/>
</g>
<defs>
<clipPath id="clip0_1421_63">
<rect width="256" height="256" fill="white"/>
</clipPath>
</defs>
</svg>
